<svg aria-hidden="true" style="position: absolute; width: 0; height: 0; overflow: hidden;" version="1.1" xmlns="http://www.w3.org/2000/svg" xmlns:xlink="http://www.w3.org/1999/xlink">
<defs>
<symbol id="vitejs" viewBox="0 0 32 32">
<path fill="#ffe252" style="fill: var(--color1, #ffe252)" opacity="0.987" d="M22.813 0.125c0.042 0 0.083 0 0.125 0 0.383 0.244 0.466 0.577 0.25 1-3.799 0.56-7.59 1.144-11.375 1.75-0.001-0.481 0.249-0.711 0.75-0.688 3.441-0.651 6.858-1.338 10.25-2.063z"></path>
<path fill="#ffdb35" style="fill: var(--color2, #ffdb35)" opacity="0.995" d="M23.188 1.125c-0.133 0.702-0.342 1.369-0.625 2-3.617 0.38-7.242 0.88-10.875 1.5 0.005-0.587 0.047-1.17 0.125-1.75 3.785-0.606 7.576-1.19 11.375-1.75z"></path>
<path fill="#fed62f" style="fill: var(--color3, #fed62f)" opacity="0.994" d="M22.563 3.125c-0.108 0.642-0.275 1.267-0.5 1.875-0.061 0.187-0.144 0.354-0.25 0.5-3.433 0.42-6.85 0.92-10.25 1.5 0-0.333 0-0.667 0-1 0.119-0.177 0.161-0.386 0.125-0.625 0-0.25 0-0.5 0-0.75 3.633-0.62 7.258-1.12 10.875-1.5z"></path>
<path fill="#4ec0ff" style="fill: var(--color4, #4ec0ff)" opacity="0.968" d="M5.063 4.125c-0.977 0.991-2.060 1.866-3.25 2.625-0.417-0.69-0.813-1.399-1.188-2.125-0.098-0.632 0.173-1.007 0.813-1.125 1.203 0.249 2.411 0.457 3.625 0.625z"></path>
<path fill="#867bfc" style="fill: var(--color5, #867bfc)" opacity="0.984" d="M27.563 4.125c0.155 0.039 0.155 0.101 0 0.188-1.542 1.125-3.083 2.25-4.625 3.375 0.074 0.058 0.158 0.079 0.25 0.063-0.493 0.176-1.014 0.301-1.563 0.375-0.253-0.066-0.357-0.233-0.313-0.5 0.166-0.708 0.333-1.416 0.5-2.125 0.106-0.146 0.189-0.313 0.25-0.5 1.834-0.292 3.667-0.583 5.5-0.875z"></path>
<path fill="#916bfd" style="fill: var(--color6, #916bfd)" opacity="0.99" d="M30.313 6.25c-2.169 1.545-4.336 3.086-6.5 4.625 0.167-0.333 0.333-0.667 0.5-1 0.269-0.538 0.54-1.080 0.813-1.625 0.162-0.42 0.037-0.67-0.375-0.75-0.516 0.124-1.036 0.207-1.563 0.25-0.092 0.016-0.176-0.004-0.25-0.063 1.542-1.125 3.083-2.25 4.625-3.375 0.155-0.086 0.155-0.149 0-0.188 0.958-0.229 1.937-0.438 2.938-0.625 0.759 0.268 0.967 0.768 0.625 1.5-0.243 0.446-0.514 0.863-0.813 1.25z"></path>
<path fill="#58b3ff" style="fill: var(--color7, #58b3ff)" opacity="0.982" d="M5.063 4.125c1.112 0.256 2.237 0.464 3.375 0.625 0.014 0.077 0.056 0.14 0.125 0.188-1.853 1.333-3.687 2.687-5.5 4.063-0.417-0.75-0.833-1.5-1.25-2.25 1.19-0.759 2.273-1.634 3.25-2.625z"></path>
<path fill="#62a6fe" style="fill: var(--color8, #62a6fe)" opacity="0.993" d="M8.438 4.75c1.083 0.208 2.167 0.417 3.25 0.625 0.036 0.239-0.006 0.448-0.125 0.625 0.047-0.426-0.078-0.488-0.375-0.188-2.285 1.766-4.619 3.454-7 5.063-0.405-0.6-0.78-1.225-1.125-1.875 1.813-1.375 3.647-2.729 5.5-4.063-0.069-0.048-0.111-0.11-0.125-0.188z"></path>
<path fill="#fed029" style="fill: var(--color9, #fed029)" d="M21.813 5.5c-0.167 0.709-0.334 1.417-0.5 2.125-0.129 0.148-0.296 0.253-0.5 0.313-3.081 0.467-6.164 0.904-9.25 1.313 0-0.292 0-0.583 0-0.875 0-0.458 0-0.917 0-1.375 3.4-0.58 6.817-1.080 10.25-1.5z"></path>
<path fill="#6b9bfe" style="fill: var(--color10, #6b9bfe)" opacity="0.995" d="M11.563 6c0 0.333 0 0.667 0 1 0 0.458 0 0.917 0 1.375-0.113 0.089-0.155 0.214-0.125 0.375-1.871 1.395-3.746 2.791-5.625 4.188-0.119 0.060-0.244 0.081-0.375 0.063-0.446-0.683-0.863-1.392-1.25-2.125 2.381-1.609 4.715-3.296 7-5.063 0.297-0.301 0.422-0.238 0.375 0.188z"></path>
<path fill="#fec926" style="fill: var(--color11, #fec926)" d="M24.313 9.875c-4.297 0.543-8.588 1.126-12.875 1.75 0.030 0.161-0.012 0.286-0.125 0.375 0-0.5 0-1 0-1.5 0.123-0.559 0.165-1.142 0.125-1.75-0.030-0.161 0.012-0.286 0.125-0.375 0 0.292 0 0.583 0 0.875 3.086-0.408 6.169-0.846 9.25-1.313 0.204-0.060 0.371-0.164 0.5-0.313-0.044 0.267 0.060 0.434 0.313 0.5 0.549-0.074 1.070-0.199 1.563-0.375 0.526-0.043 1.047-0.126 1.563-0.25 0.412 0.080 0.537 0.33 0.375 0.75-0.273 0.545-0.543 1.087-0.813 1.625z"></path>
<path fill="#7292fe" style="fill: var(--color12, #7292fe)" opacity="0.995" d="M11.438 8.75c0.040 0.608-0.002 1.191-0.125 1.75-0.050-0.128-0.133-0.149-0.25-0.063-1.651 1.256-3.318 2.486-5 3.688-0.257-0.342-0.466-0.717-0.625-1.125 0.131 0.019 0.256-0.002 0.375-0.063 1.879-1.397 3.754-2.793 5.625-4.188z"></path>
<path fill="#fec31f" style="fill: var(--color13, #fec31f)" d="M24.313 9.875c-0.167 0.333-0.333 0.667-0.5 1-0.25 0.5-0.5 1-0.75 1.5-2.713 0.34-5.421 0.715-8.125 1.125-1.108 0.168-2.213 0.376-3.313 0.625-0.138-0.011-0.263-0.052-0.375-0.125-0.062-0.247-0.083-0.497-0.063-0.75 0.042-0.417 0.083-0.833 0.125-1.25 0.113-0.089 0.155-0.214 0.125-0.375 4.287-0.624 8.578-1.207 12.875-1.75z"></path>
<path fill="#9c5dfd" style="fill: var(--color14, #9c5dfd)" opacity="0.985" d="M30.313 6.25c-0.989 2.020-2.072 3.978-3.25 5.875-2 1.417-4 2.833-6 4.25 0.667-1.333 1.333-2.667 2-4 0.25-0.5 0.5-1 0.75-1.5 2.164-1.539 4.331-3.080 6.5-4.625z"></path>
<path fill="#7a88fe" style="fill: var(--color15, #7a88fe)" opacity="0.994" d="M11.313 10.5c0 0.5 0 1 0 1.5-0.042 0.417-0.083 0.833-0.125 1.25-1.333 0.958-2.667 1.917-4 2.875-0.438-0.625-0.813-1.292-1.125-2 1.682-1.202 3.349-2.431 5-3.688 0.117-0.086 0.2-0.066 0.25 0.063z"></path>
<path fill="#febb19" style="fill: var(--color16, #febb19)" d="M23.063 12.375c-0.667 1.333-1.333 2.667-2 4-0.179 0.399-0.387 0.774-0.625 1.125-1.894 0.163-3.811 0.413-5.75 0.75-0.191-0.017-0.316-0.101-0.375-0.25 0.21-1.36 0.46-2.714 0.75-4.063-0.004-0.134-0.045-0.238-0.125-0.313 0-0.042 0-0.083 0-0.125 2.704-0.41 5.412-0.785 8.125-1.125z"></path>
<path fill="#857bfd" style="fill: var(--color17, #857bfd)" opacity="0.99" d="M11.188 13.25c-0.020 0.253 0.001 0.503 0.063 0.75 0.112 0.073 0.237 0.114 0.375 0.125 1.1-0.249 2.204-0.457 3.313-0.625 0 0.042 0 0.083 0 0.125-2.038 1.478-4.080 2.957-6.125 4.438-0.165 0.102-0.249 0.248-0.25 0.438-0.488-0.767-0.946-1.558-1.375-2.375 1.333-0.958 2.667-1.917 4-2.875z"></path>
<path fill="#906dfd" style="fill: var(--color18, #906dfd)" opacity="0.992" d="M14.938 13.625c0.080 0.075 0.121 0.179 0.125 0.313-0.29 1.348-0.54 2.703-0.75 4.063-0.152 0.194-0.152 0.402 0 0.625-1.357 0.99-2.732 1.949-4.125 2.875-0.545-1.002-1.087-2.002-1.625-3 0.001-0.19 0.085-0.335 0.25-0.438 2.045-1.48 4.087-2.96 6.125-4.438z"></path>
<path fill="#a74ffd" style="fill: var(--color19, #a74ffd)" opacity="0.99" d="M27.063 12.125c-0.957 1.747-1.915 3.497-2.875 5.25-1.831 1.288-3.664 2.58-5.5 3.875 0.583-1.25 1.167-2.5 1.75-3.75 0.238-0.351 0.446-0.726 0.625-1.125 2-1.417 4-2.833 6-4.25z"></path>
<path fill="#9d5cfd" style="fill: var(--color20, #9d5cfd)" opacity="0.996" d="M16.688 19.875c0.008-0.055-0.013-0.096-0.063-0.125-1.722 1.267-3.451 2.517-5.188 3.75-0.462-0.631-0.879-1.297-1.25-2 1.393-0.926 2.768-1.885 4.125-2.875 0.872-0.187 1.747-0.333 2.625-0.438 0.070 0.091 0.111 0.195 0.125 0.313-0.109 0.479-0.234 0.937-0.375 1.375z"></path>
<path fill="#ae48fc" style="fill: var(--color21, #ae48fc)" opacity="0.986" d="M24.188 17.375c-0.917 1.625-1.833 3.25-2.75 4.875-2.471 1.74-4.93 3.511-7.375 5.313-0.094 0.084-0.136 0.188-0.125 0.313-0.928-1.396-1.761-2.855-2.5-4.375 1.736-1.233 3.466-2.483 5.188-3.75 0.050 0.029 0.071 0.070 0.063 0.125-0.288 1.627-0.6 3.252-0.938 4.875-0.096 0.325-0.075 0.637 0.063 0.938 0.201 0.090 0.389 0.069 0.563-0.063 0.711-1.506 1.482-2.964 2.313-4.375 1.836-1.295 3.669-2.587 5.5-3.875z"></path>
<path fill="#fdab14" style="fill: var(--color22, #fdab14)" d="M20.438 17.5c-0.583 1.25-1.167 2.5-1.75 3.75-0.831 1.411-1.602 2.869-2.313 4.375-0.174 0.132-0.361 0.152-0.563 0.063-0.138-0.3-0.159-0.613-0.063-0.938 0.337-1.623 0.65-3.248 0.938-4.875 0.141-0.438 0.266-0.896 0.375-1.375-0.014-0.118-0.055-0.222-0.125-0.313-0.878 0.104-1.753 0.25-2.625 0.438-0.152-0.223-0.152-0.431 0-0.625 0.059 0.149 0.184 0.233 0.375 0.25 1.939-0.337 3.856-0.587 5.75-0.75z"></path>
<path fill="#ba37fe" style="fill: var(--color23, #ba37fe)" opacity="0.948" d="M21.438 22.25c-1.576 2.881-3.201 5.735-4.875 8.563-0.412 0.117-0.787 0.055-1.125-0.188-0.567-0.883-1.067-1.8-1.5-2.75-0.011-0.125 0.031-0.229 0.125-0.313 2.445-1.801 4.904-3.572 7.375-5.313z"></path>
</symbol>
<symbol id="materialui" viewBox="0 0 32 32">
<path fill="#00b0ff" style="fill: var(--color24, #00b0ff)" d="M0 17.106v-13.856l12 6.928v4.619l-8-4.619v9.237z"></path>
<path fill="#0081cb" style="fill: var(--color25, #0081cb)" d="M12 10.178l12-6.928v13.856l-8 4.619-4-2.309 8-4.619v-4.619l-8 4.619z"></path>
<path fill="#00b0ff" style="fill: var(--color24, #00b0ff)" d="M12 19.415v4.619l8 4.619v-4.619z"></path>
<path fill="#0081cb" style="fill: var(--color25, #0081cb)" d="M20 28.653l12-6.928v-9.237l-4 2.309v4.619l-8 4.619zM28 10.178v-4.619l4-2.309v4.619z"></path>
</symbol>
<symbol id="postman" viewBox="0 0 32 32">
<path d="M18.036 0.132c-8.763-1.124-16.78 5.068-17.904 13.832-1.124 8.763 5.067 16.779 13.831 17.904 8.764 1.124 16.783-5.068 17.904-13.832 1.125-8.763-5.065-16.779-13.831-17.904zM21.331 10.112c-0.309 0.004-0.588 0.131-0.791 0.333v0l-5.937 5.937-1.267-1.267c5.852-5.835 6.907-5.891 7.995-5.004zM14.847 16.593l5.92-5.92c0.151-0.158 0.363-0.256 0.598-0.256 0.457 0 0.827 0.37 0.827 0.827 0 0.254-0.114 0.481-0.294 0.633l-0.001 0.001-6.265 5.5-0.784-0.784zM15.287 17.519l-1.467 0.317c-0.005 0.001-0.011 0.002-0.018 0.002-0.031 0-0.058-0.018-0.072-0.044l-0-0c-0.007-0.012-0.011-0.025-0.011-0.040 0-0.022 0.009-0.043 0.024-0.057v0l0.86-0.86 0.683 0.683zM11.549 16.907l1.563-1.563 1.172 1.171-2.639 0.568c-0.007 0.002-0.016 0.003-0.025 0.003-0.039 0-0.072-0.022-0.088-0.055l-0-0.001c-0.010-0.015-0.015-0.033-0.015-0.052 0-0.029 0.013-0.054 0.032-0.072l0-0zM6.688 24.984c-0.052-0.005-0.092-0.048-0.092-0.101 0-0.003 0-0.007 0-0.010l-0 0c0.003-0.024 0.013-0.045 0.029-0.061v0h0.003l1.261-1.261 1.629 1.629-2.831-0.196zM9.921 23.309c-0.098 0.052-0.164 0.153-0.164 0.27 0 0.025 0.003 0.050 0.009 0.073l-0-0.002 0.271 1.153c0.003 0.012 0.005 0.026 0.005 0.040 0 0.092-0.075 0.167-0.167 0.167-0.047 0-0.089-0.019-0.119-0.050l-0-0h-0.004l-1.637-1.639 5.016-5.011 2.427-0.524 1.165 1.165c-1.673 1.469-3.961 2.935-6.8 4.357zM16.96 18.739h-0.003l-1.119-1.119 6.265-5.5c0.058-0.052 0.11-0.107 0.157-0.167l0.002-0.003c-0.197 1.793-2.705 4.327-5.303 6.788zM21.836 10.125l-0.004-0.003c-0.437-0.439-0.707-1.045-0.707-1.714 0-1.342 1.088-2.429 2.429-2.429 0.594 0 1.138 0.213 1.561 0.567l-0.004-0.003-2.147 2.151c-0.029 0.029-0.047 0.069-0.047 0.113s0.018 0.084 0.047 0.113v0l1.663 1.663c-0.314 0.159-0.685 0.253-1.077 0.253-0.669 0-1.275-0.271-1.713-0.71v0zM25.273 10.125c-0.107 0.106-0.226 0.202-0.353 0.285l-0.009 0.005h-0.001l-1.609-1.609 2.044-2.044c0.881 0.96 0.849 2.443-0.072 3.363zM25.14 8.067c-0.048 0.035-0.079 0.091-0.079 0.154 0 0.020 0.003 0.039 0.008 0.056l-0-0.001c0.036 0.072 0.057 0.156 0.057 0.246 0 0.135-0.048 0.259-0.129 0.355l0.001-0.001c-0.025 0.032-0.040 0.072-0.040 0.116 0 0.059 0.028 0.112 0.071 0.146l0 0c0.031 0.024 0.069 0.039 0.112 0.040h0c0.057-0.001 0.107-0.026 0.141-0.066l0-0c0.133-0.159 0.213-0.365 0.213-0.589 0-0.15-0.036-0.292-0.1-0.417l0.002 0.005c-0.034-0.048-0.089-0.079-0.151-0.079-0.040 0-0.078 0.013-0.108 0.035l0.001-0z"></path>
</symbol>
<symbol id="figma" viewBox="0 0 32 32">
<path fill="#0acf83" style="fill: var(--color26, #0acf83)" d="M11.556 29.333c2.453 0 4.444-1.991 4.444-4.444v-4.444h-4.444c-2.453 0-4.444 1.991-4.444 4.444s1.991 4.444 4.444 4.444z"></path>
<path fill="#a259ff" style="fill: var(--color27, #a259ff)" d="M7.111 16c0-2.453 1.991-4.444 4.444-4.444h4.444v8.889h-4.444c-2.453 0-4.444-1.991-4.444-4.444z"></path>
<path fill="#f24e1e" style="fill: var(--color28, #f24e1e)" d="M7.111 7.111c0-2.453 1.991-4.444 4.444-4.444h4.444v8.889h-4.444c-2.453 0-4.444-1.991-4.444-4.444z"></path>
<path fill="#ff7262" style="fill: var(--color29, #ff7262)" d="M16 2.667h4.444c2.453 0 4.444 1.991 4.444 4.444s-1.991 4.444-4.444 4.444h-4.444v-8.889z"></path>
<path fill="#1abcfe" style="fill: var(--color30, #1abcfe)" d="M24.889 16c0 2.453-1.991 4.444-4.444 4.444s-4.444-1.991-4.444-4.444 1.991-4.444 4.444-4.444 4.444 1.991 4.444 4.444z"></path>
</symbol>
<symbol id="firebase" viewBox="0 0 32 32">
<path fill="#00bcd4" style="fill: var(--color31, #00bcd4)" d="M32 16c0 8.837-7.163 16-16 16s-16-7.163-16-16c0-8.837 7.163-16 16-16s16 7.163 16 16z"></path>
<path fill="#ffa000" style="fill: var(--color32, #ffa000)" d="M18.565 12.849l-2.271 2.113-2.107-4.25 1.090-2.444c0.276-0.49 0.726-0.491 1.002 0l2.285 4.582z"></path>
<path fill="#f57f17" style="fill: var(--color33, #f57f17)" d="M16.294 14.962l-8.486 7.894 6.379-12.145z"></path>
<path fill="#ffca28" style="fill: var(--color34, #ffca28)" d="M21.049 9.619c0.406-0.39 0.825-0.257 0.932 0.296l2.209 12.836-7.322 4.388c-0.256 0.142-0.935 0.203-0.935 0.203s-0.619-0.074-0.855-0.205l-7.269-4.281 13.241-13.237z"></path>
<path fill="#ffa000" style="fill: var(--color32, #ffa000)" d="M14.187 10.711l-6.379 12.145 2.841-17.75c0.105-0.553 0.419-0.606 0.7-0.118l2.837 5.723z"></path>
</symbol>
<symbol id="mongodb" viewBox="0 0 32 32">
<path fill="#8e714e" style="fill: var(--color35, #8e714e)" d="M29.137 15.313c-0.025 0.006-0.056 0.063-0.056 0.1-0.006 0.219-0.012 0.794-0.012 1.188 0 0.012 0.019 0.031 0.031 0.031 0.081 0.006 0.275 0.012 0.444 0.012 0.231 0 0.369-0.031 0.444-0.063 0.194-0.1 0.288-0.313 0.288-0.544 0-0.525-0.369-0.731-0.919-0.731-0.031-0.012-0.137-0.012-0.219 0.006v0 0zM30.538 17.744c0-0.538-0.394-0.837-1.113-0.837-0.031 0-0.262-0.006-0.313 0.006-0.019 0.006-0.038 0.019-0.038 0.031 0 0.387-0.006 1 0.012 1.238 0.012 0.106 0.087 0.25 0.181 0.294 0.1 0.056 0.319 0.063 0.475 0.063 0.419 0 0.794-0.238 0.794-0.794v0 0zM28.025 15.012c0.056 0 0.219 0.019 0.637 0.019 0.394 0 0.712-0.012 1.1-0.012 0.475 0 1.125 0.169 1.125 0.875 0 0.35-0.244 0.625-0.563 0.762-0.019 0.006-0.019 0.019 0 0.019 0.456 0.113 0.856 0.394 0.856 0.931 0 0.519-0.325 0.856-0.8 1.063-0.288 0.125-0.644 0.169-1.012 0.169-0.275 0-1.019-0.031-1.438-0.019-0.044-0.019 0.038-0.212 0.075-0.244 0.1-0.006 0.175-0.012 0.275-0.044 0.144-0.038 0.163-0.081 0.188-0.306 0.012-0.188 0.012-0.863 0.012-1.344 0-0.656 0.006-1.106 0-1.319-0.006-0.169-0.063-0.225-0.188-0.256-0.094-0.019-0.244-0.037-0.369-0.056-0.025-0.031 0.069-0.219 0.1-0.238v0 0zM24.894 18.394c0.131 0.106 0.387 0.144 0.613 0.144 0.294 0 0.587-0.056 0.869-0.313 0.288-0.262 0.488-0.663 0.488-1.306 0-0.613-0.231-1.113-0.712-1.406-0.269-0.169-0.619-0.238-1.019-0.238-0.119 0-0.231 0.006-0.306 0.037-0.019 0.012-0.056 0.063-0.056 0.088-0.012 0.106-0.012 0.944-0.012 1.438 0 0.506 0 1.212 0.012 1.294 0.006 0.081 0.044 0.206 0.125 0.262v0 0zM23.656 15.012c0.106 0 0.5 0.019 0.688 0.019 0.344 0 0.587-0.019 1.231-0.019 0.544 0 1 0.144 1.325 0.425 0.394 0.344 0.606 0.813 0.606 1.394 0 0.819-0.375 1.294-0.75 1.563-0.375 0.275-0.863 0.438-1.563 0.438-0.369 0-1.006-0.012-1.531-0.019h-0.006c-0.025-0.050 0.044-0.238 0.087-0.244 0.144-0.019 0.181-0.019 0.25-0.050 0.113-0.044 0.137-0.106 0.15-0.306 0.019-0.375 0.012-0.825 0.012-1.337 0-0.363 0.006-1.075-0.006-1.306-0.019-0.188-0.1-0.238-0.262-0.269-0.081-0.019-0.188-0.037-0.344-0.056-0.012-0.031 0.087-0.2 0.113-0.231v0 0z"></path>
<path fill="#442d22" style="fill: var(--color36, #442d22)" d="M17.081 18.606c-0.137-0.019-0.231-0.038-0.356-0.094-0.019-0.012-0.044-0.063-0.044-0.087-0.012-0.188-0.012-0.731-0.012-1.1 0-0.294-0.050-0.55-0.175-0.731-0.144-0.206-0.356-0.325-0.631-0.325-0.238 0-0.563 0.163-0.825 0.394-0.006 0.006-0.050 0.044-0.044-0.019 0-0.063 0.012-0.181 0.019-0.262 0.006-0.075-0.037-0.113-0.037-0.113-0.175 0.087-0.662 0.2-0.844 0.219-0.131 0.025-0.162 0.15-0.025 0.194h0.006c0.144 0.044 0.244 0.094 0.319 0.144 0.056 0.044 0.050 0.106 0.050 0.15 0.006 0.406 0.006 1.031-0.012 1.375-0.006 0.137-0.044 0.188-0.144 0.206l0.012-0.006c-0.075 0.019-0.137 0.031-0.231 0.044-0.031 0.031-0.031 0.206 0 0.244 0.063 0 0.375-0.019 0.637-0.019 0.356 0 0.544 0.019 0.637 0.019 0.037-0.044 0.050-0.206 0.025-0.244-0.106-0.006-0.181-0.019-0.25-0.038-0.1-0.019-0.125-0.069-0.131-0.188-0.012-0.288-0.012-0.894-0.012-1.313 0-0.113 0.031-0.169 0.063-0.2 0.125-0.106 0.325-0.188 0.506-0.188 0.175 0 0.287 0.056 0.375 0.125 0.119 0.1 0.156 0.238 0.175 0.344 0.025 0.231 0.019 0.694 0.019 1.1 0 0.219-0.019 0.269-0.1 0.3-0.038 0.019-0.137 0.038-0.25 0.050-0.037 0.038-0.025 0.206 0 0.244 0.156 0 0.344-0.019 0.613-0.019 0.337 0 0.556 0.019 0.644 0.019 0.038-0.025 0.050-0.181 0.025-0.225v0 0zM18.587 16.531c-0.288 0-0.469 0.225-0.469 0.569 0 0.356 0.156 0.762 0.606 0.762 0.075 0 0.219-0.031 0.281-0.106 0.106-0.1 0.175-0.294 0.175-0.5 0-0.456-0.225-0.725-0.594-0.725v0 0zM18.55 18.931c-0.106 0-0.188 0.031-0.231 0.063-0.231 0.144-0.331 0.288-0.331 0.456 0 0.156 0.063 0.281 0.188 0.394 0.156 0.137 0.375 0.2 0.65 0.2 0.556 0 0.8-0.3 0.8-0.594 0-0.206-0.106-0.344-0.313-0.419-0.156-0.069-0.431-0.1-0.762-0.1v0 0zM18.587 20.344c-0.331 0-0.569-0.069-0.775-0.231-0.2-0.15-0.288-0.381-0.288-0.538 0-0.044 0.012-0.163 0.106-0.269 0.063-0.063 0.188-0.188 0.5-0.4 0.012-0.006 0.019-0.012 0.019-0.019 0-0.012-0.012-0.019-0.019-0.025-0.256-0.1-0.331-0.256-0.356-0.344v-0.019c-0.006-0.031-0.019-0.063 0.031-0.1 0.038-0.025 0.094-0.063 0.15-0.1 0.094-0.056 0.188-0.113 0.25-0.163 0.012-0.012 0.012-0.019 0.012-0.031s-0.012-0.019-0.019-0.025c-0.381-0.125-0.569-0.406-0.569-0.831 0-0.275 0.125-0.525 0.35-0.688 0.15-0.119 0.531-0.269 0.781-0.269h0.019c0.256 0.006 0.394 0.063 0.6 0.131 0.106 0.038 0.212 0.056 0.356 0.056 0.212 0 0.306-0.063 0.381-0.144 0.006 0.012 0.019 0.038 0.019 0.106 0.006 0.069-0.019 0.175-0.069 0.25-0.044 0.063-0.144 0.106-0.238 0.106h-0.025c-0.1-0.012-0.144-0.019-0.144-0.019l-0.019 0.012c-0.006 0.012 0 0.019 0.006 0.038l0.006 0.012c0.012 0.050 0.031 0.194 0.031 0.231 0 0.444-0.181 0.644-0.369 0.788-0.188 0.137-0.394 0.225-0.637 0.244-0.006 0-0.025 0-0.075 0.006-0.025 0-0.063 0.006-0.069 0.006h-0.006c-0.044 0.012-0.15 0.063-0.15 0.156 0 0.081 0.050 0.181 0.281 0.194 0.050 0.006 0.1 0.006 0.15 0.012 0.313 0.019 0.694 0.050 0.875 0.106 0.25 0.094 0.406 0.313 0.406 0.581 0 0.4-0.288 0.775-0.769 1.012-0.25 0.106-0.481 0.163-0.738 0.163v0 0zM21.688 16.556c-0.113 0-0.219 0.025-0.294 0.081-0.212 0.131-0.319 0.394-0.319 0.769 0 0.712 0.356 1.212 0.869 1.212 0.15 0 0.269-0.044 0.375-0.131 0.156-0.131 0.238-0.394 0.238-0.756 0-0.7-0.356-1.175-0.869-1.175v0 0zM21.781 18.881c-0.925 0-1.256-0.681-1.256-1.313 0-0.444 0.181-0.788 0.538-1.031 0.256-0.156 0.563-0.244 0.831-0.244 0.706 0 1.2 0.506 1.2 1.231 0 0.494-0.194 0.887-0.569 1.125-0.175 0.119-0.488 0.231-0.744 0.231v0 0zM12.1 16.556c-0.113 0-0.219 0.025-0.294 0.081-0.213 0.131-0.319 0.394-0.319 0.769 0 0.712 0.356 1.212 0.869 1.212 0.15 0 0.269-0.044 0.375-0.131 0.156-0.131 0.238-0.394 0.238-0.756 0-0.7-0.35-1.175-0.869-1.175v0 0zM12.2 18.881c-0.925 0-1.256-0.681-1.256-1.313 0-0.444 0.181-0.788 0.537-1.031 0.256-0.156 0.563-0.244 0.831-0.244 0.706 0 1.2 0.506 1.2 1.231 0 0.494-0.194 0.887-0.569 1.125-0.175 0.119-0.488 0.231-0.744 0.231v0 0zM5.987 18.825c-0.013-0.019-0.019-0.063-0.019-0.125 0-0.044 0.013-0.069 0.019-0.081 0.112-0.019 0.175-0.031 0.237-0.050 0.106-0.025 0.15-0.087 0.156-0.225 0.019-0.325 0.019-0.944 0.013-1.375v-0.012c0-0.050 0-0.106-0.063-0.15-0.088-0.056-0.188-0.106-0.325-0.144-0.050-0.019-0.081-0.044-0.075-0.075 0-0.031 0.031-0.069 0.106-0.081 0.181-0.019 0.644-0.131 0.831-0.212 0.013 0.012 0.025 0.044 0.025 0.087l-0.006 0.063c-0.006 0.063-0.013 0.131-0.013 0.2 0 0.019 0.019 0.038 0.044 0.038 0.013 0 0.019-0.006 0.031-0.012 0.35-0.269 0.662-0.369 0.825-0.369 0.269 0 0.475 0.125 0.631 0.387 0.012 0.019 0.019 0.019 0.037 0.019 0.012 0 0.025-0.006 0.031-0.019 0.319-0.244 0.644-0.394 0.856-0.394 0.506 0 0.806 0.375 0.806 1.012 0 0.181 0 0.413-0.006 0.625 0 0.188-0.006 0.363-0.006 0.488 0 0.025 0.037 0.113 0.1 0.131 0.075 0.038 0.181 0.056 0.313 0.075h0.006c0.012 0.038-0.012 0.181-0.031 0.206-0.031 0-0.081 0-0.137-0.006-0.106-0.006-0.25-0.012-0.412-0.012-0.338 0-0.512 0.006-0.681 0.019-0.012-0.044-0.019-0.175 0-0.206 0.1-0.019 0.144-0.031 0.206-0.050 0.106-0.031 0.137-0.081 0.144-0.225 0-0.106 0.019-0.981-0.012-1.194-0.031-0.219-0.194-0.475-0.556-0.475-0.137 0-0.35 0.056-0.556 0.212-0.012 0.012-0.019 0.038-0.019 0.056v0.006c0.019 0.113 0.019 0.244 0.019 0.444v0.356c0 0.244-0.006 0.475 0 0.644 0 0.119 0.069 0.144 0.131 0.169 0.031 0.006 0.056 0.012 0.081 0.019 0.050 0.012 0.1 0.019 0.175 0.038 0.012 0.019 0.012 0.094-0.006 0.15-0.006 0.031-0.019 0.050-0.019 0.056-0.188-0.006-0.375-0.012-0.65-0.012-0.081 0-0.225 0.006-0.344 0.006-0.1 0-0.188 0.006-0.244 0.006-0.006-0.012-0.019-0.050-0.019-0.106 0-0.050 0.013-0.087 0.019-0.1 0.025-0.006 0.050-0.012 0.075-0.012 0.063-0.012 0.119-0.019 0.175-0.031 0.094-0.025 0.125-0.075 0.131-0.194 0.019-0.269 0.031-1.050-0.006-1.244-0.063-0.313-0.244-0.475-0.531-0.475-0.169 0-0.381 0.081-0.556 0.212-0.025 0.019-0.050 0.075-0.050 0.125v0.319c0 0.394 0 0.881 0.006 1.094 0.006 0.063 0.025 0.144 0.15 0.169 0.025 0.006 0.069 0.019 0.125 0.019l0.1 0.019c0.013 0.031 0.006 0.163-0.019 0.206-0.056 0-0.119-0.006-0.194-0.006-0.112-0.006-0.263-0.012-0.425-0.012-0.188 0-0.325 0.006-0.438 0.012-0.063 0-0.125 0-0.188 0v0 0z"></path>
<path fill="#fff" style="fill: var(--color37, #fff)" d="M3.125 20.131l-0.225-0.075c0 0 0.025-1.137-0.381-1.219-0.269-0.313 0.044-13.369 1.019-0.044 0 0-0.337 0.169-0.394 0.456-0.063 0.281-0.019 0.881-0.019 0.881v0 0z"></path>
<path fill="#a6a385" style="fill: var(--color38, #a6a385)" d="M3.125 20.131l-0.225-0.075c0 0 0.025-1.137-0.381-1.219-0.269-0.313 0.044-13.369 1.019-0.044 0 0-0.337 0.169-0.394 0.456-0.063 0.281-0.019 0.881-0.019 0.881v0 0z"></path>
<path fill="#fff" style="fill: var(--color37, #fff)" d="M3.244 19.031c0 0 1.95-1.281 1.494-3.95-0.438-1.938-1.481-2.575-1.594-2.819-0.125-0.175-0.244-0.481-0.244-0.481l0.081 5.394c0.006 0.012-0.163 1.656 0.263 1.856z"></path>
<path fill="#499d4a" style="fill: var(--color39, #499d4a)" d="M3.244 19.031c0 0 1.95-1.281 1.494-3.95-0.438-1.938-1.481-2.575-1.594-2.819-0.125-0.175-0.244-0.481-0.244-0.481l0.081 5.394c0.006 0.012-0.163 1.656 0.263 1.856z"></path>
<path fill="#fff" style="fill: var(--color37, #fff)" d="M2.788 19.106c0 0-1.831-1.25-1.725-3.45s1.394-3.281 1.644-3.481c0.169-0.175 0.175-0.238 0.188-0.412 0.112 0.244 0.094 3.656 0.106 4.063 0.050 1.544-0.087 2.987-0.212 3.281v0 0z"></path>
<path fill="#58aa50" style="fill: var(--color40, #58aa50)" d="M2.788 19.106c0 0-1.831-1.25-1.725-3.45s1.394-3.281 1.644-3.481c0.169-0.175 0.175-0.238 0.188-0.412 0.112 0.244 0.094 3.656 0.106 4.063 0.050 1.544-0.087 2.987-0.212 3.281v0 0z"></path>
</symbol>
<symbol id="nodejs" viewBox="0 0 32 32">
<path fill="#699f63" style="fill: var(--color41, #699f63)" d="M15.856 25.618c-0.102 0-0.204-0.027-0.294-0.079l-0.936-0.554c-0.14-0.078-0.071-0.106-0.025-0.122 0.186-0.065 0.224-0.080 0.423-0.192 0.021-0.012 0.048-0.007 0.070 0.005l0.719 0.427c0.026 0.014 0.063 0.014 0.087 0l2.804-1.618c0.026-0.015 0.043-0.045 0.043-0.076v-3.235c0-0.032-0.017-0.061-0.044-0.077l-2.802-1.617c-0.026-0.015-0.060-0.015-0.086 0l-2.802 1.617c-0.027 0.016-0.044 0.046-0.044 0.077v3.235c0 0.031 0.017 0.060 0.044 0.075l0.768 0.444c0.417 0.208 0.672-0.037 0.672-0.284v-3.194c0-0.045 0.036-0.081 0.081-0.081h0.355c0.044 0 0.081 0.036 0.081 0.081v3.194c0 0.556-0.303 0.875-0.83 0.875-0.162 0-0.29 0-0.646-0.175l-0.735-0.423c-0.182-0.105-0.294-0.301-0.294-0.511v-3.235c0-0.21 0.112-0.406 0.294-0.511l2.803-1.62c0.177-0.1 0.413-0.1 0.589 0l2.803 1.62c0.182 0.105 0.294 0.301 0.294 0.511v3.235c0 0.21-0.113 0.406-0.294 0.511l-2.803 1.619c-0.090 0.052-0.191 0.079-0.295 0.079z"></path>
<path fill="#699f63" style="fill: var(--color41, #699f63)" d="M16.722 23.389c-1.227 0-1.484-0.563-1.484-1.035 0-0.045 0.036-0.081 0.081-0.081h0.362c0.040 0 0.074 0.029 0.081 0.069 0.055 0.369 0.218 0.555 0.96 0.555 0.591 0 0.842-0.134 0.842-0.447 0-0.181-0.071-0.315-0.989-0.405-0.767-0.076-1.241-0.245-1.241-0.859 0-0.566 0.477-0.903 1.276-0.903 0.898 0 1.343 0.312 1.399 0.98 0.002 0.023-0.006 0.045-0.021 0.062-0.015 0.016-0.037 0.026-0.059 0.026h-0.364c-0.038 0-0.071-0.027-0.079-0.063-0.087-0.388-0.3-0.512-0.875-0.512-0.645 0-0.72 0.225-0.72 0.393 0 0.204 0.088 0.263 0.959 0.379 0.862 0.114 1.271 0.275 1.271 0.881-0 0.611-0.509 0.961-1.398 0.961z"></path>
<path fill="#699f63" style="fill: var(--color41, #699f63)" d="M20.765 19.996c0 0.297-0.243 0.54-0.54 0.54-0.295 0-0.54-0.24-0.54-0.54 0-0.306 0.252-0.54 0.54-0.54 0.292 0 0.54 0.235 0.54 0.54zM19.771 19.994c0 0.252 0.203 0.455 0.452 0.455 0.252 0 0.455-0.207 0.455-0.455 0-0.252-0.206-0.452-0.455-0.452-0.246 0-0.452 0.197-0.452 0.452zM20.022 19.693h0.209c0.071 0 0.212 0 0.212 0.16 0 0.111-0.071 0.134-0.115 0.149 0.083 0.006 0.089 0.060 0.1 0.137 0.006 0.049 0.014 0.131 0.031 0.16h-0.128c-0.003-0.029-0.023-0.183-0.023-0.191-0.008-0.034-0.020-0.051-0.063-0.051h-0.106v0.243h-0.117v-0.606h-0zM20.136 19.959h0.094c0.077 0 0.091-0.054 0.091-0.086 0-0.083-0.057-0.083-0.089-0.083h-0.097v0.169z"></path>
<path fill="#333" style="fill: var(--color42, #333)" d="M7.175 12.96c0-0.129-0.068-0.248-0.179-0.312l-2.972-1.711c-0.050-0.030-0.107-0.045-0.164-0.047-0.005 0-0.027 0-0.031 0-0.057 0.002-0.113 0.018-0.164 0.047l-2.972 1.711c-0.111 0.064-0.18 0.183-0.18 0.312l0.007 4.606c0 0.064 0.033 0.124 0.090 0.155 0.055 0.033 0.123 0.033 0.178 0l1.766-1.012c0.112-0.066 0.18-0.183 0.18-0.311v-2.152c0-0.128 0.068-0.247 0.179-0.311l0.752-0.433c0.056-0.032 0.117-0.048 0.18-0.048 0.061 0 0.124 0.016 0.179 0.048l0.752 0.433c0.111 0.064 0.179 0.183 0.179 0.311v2.152c0 0.128 0.069 0.246 0.18 0.311l1.766 1.012c0.055 0.033 0.125 0.033 0.179 0 0.055-0.031 0.089-0.091 0.089-0.155l0.006-4.606z"></path>
<path fill="#333" style="fill: var(--color42, #333)" d="M21.477 6.628c-0.056-0.031-0.123-0.030-0.178 0.002s-0.089 0.091-0.089 0.155v4.561c0 0.045-0.024 0.086-0.063 0.109s-0.087 0.022-0.126 0l-0.744-0.429c-0.111-0.064-0.248-0.064-0.359 0l-2.973 1.716c-0.111 0.064-0.18 0.183-0.18 0.311v3.433c0 0.128 0.068 0.247 0.18 0.311l2.973 1.717c0.111 0.064 0.248 0.064 0.359 0l2.974-1.717c0.111-0.064 0.18-0.183 0.18-0.311v-8.557c0-0.13-0.070-0.25-0.184-0.314l-1.769-0.987zM21.201 15.358c0 0.032-0.017 0.062-0.045 0.078l-1.021 0.588c-0.028 0.016-0.062 0.016-0.090 0l-1.021-0.588c-0.028-0.016-0.045-0.046-0.045-0.078v-1.179c0-0.032 0.017-0.062 0.045-0.078l1.021-0.59c0.028-0.016 0.062-0.016 0.090 0l1.021 0.59c0.028 0.016 0.045 0.046 0.045 0.078l-0 1.179z"></path>
<path fill="#333" style="fill: var(--color42, #333)" d="M31.378 14.148c0.111-0.064 0.179-0.183 0.179-0.31v-0.832c0-0.128-0.068-0.246-0.179-0.311l-2.954-1.715c-0.111-0.065-0.248-0.065-0.36-0.001l-2.972 1.716c-0.111 0.064-0.18 0.183-0.18 0.311v3.432c0 0.129 0.069 0.248 0.181 0.312l2.954 1.683c0.109 0.062 0.242 0.063 0.352 0.002l1.787-0.993c0.057-0.032 0.092-0.091 0.092-0.156s-0.034-0.125-0.090-0.157l-2.991-1.717c-0.056-0.032-0.090-0.091-0.090-0.156v-1.075c0-0.064 0.034-0.123 0.090-0.155l0.931-0.537c0.055-0.032 0.124-0.032 0.179 0l0.931 0.537c0.056 0.032 0.090 0.091 0.090 0.155v0.846c0 0.064 0.034 0.124 0.090 0.156s0.124 0.032 0.18-0l1.78-1.035z"></path>
<path fill="#699f63" style="fill: var(--color41, #699f63)" d="M28.199 13.988c0.021-0.012 0.048-0.012 0.069 0l0.571 0.329c0.021 0.012 0.034 0.035 0.034 0.060v0.659c0 0.025-0.013 0.047-0.034 0.060l-0.571 0.329c-0.021 0.012-0.048 0.012-0.069 0l-0.57-0.329c-0.021-0.012-0.034-0.035-0.034-0.060v-0.659c0-0.025 0.013-0.047 0.034-0.060l0.57-0.329z"></path>
<path fill="#000" style="fill: var(--color43, #000)" d="M12.149 10.998c-0.11-0.064-0.247-0.064-0.357 0l-2.957 1.706c-0.111 0.064-0.179 0.182-0.179 0.309v3.415c0 0.128 0.068 0.245 0.179 0.309l2.957 1.708c0.111 0.064 0.247 0.064 0.357 0l2.956-1.708c0.11-0.064 0.178-0.182 0.178-0.309v-3.415c0-0.128-0.068-0.245-0.179-0.309l-2.956-1.706z"></path>
<path fill="#000" style="fill: var(--color43, #000)" d="M15.111 12.704l-2.965-1.706c-0.029-0.017-0.061-0.029-0.093-0.037l-3.329 5.695c0.029 0.032 0.062 0.060 0.1 0.082l2.97 1.708c0.084 0.049 0.184 0.060 0.276 0.035l3.121-5.715c-0.024-0.023-0.050-0.044-0.079-0.061z"></path>
<path fill="#000" style="fill: var(--color43, #000)" d="M11.693 10.37l-0.041 0.023h0.054z"></path>
<path fill="#000" style="fill: var(--color43, #000)" d="M15.112 16.738c0.086-0.050 0.15-0.133 0.175-0.227l-3.25-5.553c-0.085-0.017-0.175-0.004-0.251 0.040l-2.945 1.696 3.182 5.796c0.045-0.006 0.090-0.021 0.131-0.044l2.96-1.708z"></path>
<path fill="#000" style="fill: var(--color43, #000)" d="M15.388 16.683l-0.020-0.033v0.045z"></path>
<path fill="#000" style="fill: var(--color43, #000)" d="M15.112 16.738l-2.96 1.708c-0.041 0.023-0.085 0.038-0.131 0.044l0.059 0.107 3.287-1.903v-0.045l-0.081-0.139c-0.024 0.095-0.089 0.177-0.175 0.227z"></path>
<path fill="#000" style="fill: var(--color43, #000)" d="M15.112 16.738l-2.96 1.708c-0.041 0.023-0.085 0.038-0.131 0.044l0.059 0.107 3.287-1.903v-0.045l-0.081-0.139c-0.024 0.095-0.089 0.177-0.175 0.227z"></path>
</symbol>
<symbol id="nextjs" viewBox="0 0 32 32">
<path d="M9.6 9.6l0.865-0.625c-0.271-0.375-0.753-0.533-1.193-0.39s-0.739 0.552-0.739 1.015h1.067zM16 29.867c-7.658 0-13.867-6.208-13.867-13.867h-2.133c0 8.836 7.163 16 16 16v-2.133zM29.867 16c0 7.658-6.208 13.867-13.867 13.867v2.133c8.836 0 16-7.164 16-16h-2.133zM16 2.133c7.658 0 13.867 6.208 13.867 13.867h2.133c0-8.837-7.164-16-16-16v2.133zM16 0c-8.837 0-16 7.163-16 16h2.133c0-7.658 6.208-13.867 13.867-13.867v-2.133zM10.667 25.6v-16h-2.133v16h2.133zM8.735 10.225l13.867 19.2 1.729-1.249-13.867-19.2-1.729 1.249zM21.333 8.533v12.8h2.133v-12.8h-2.133z"></path>
</symbol>
<symbol id="github" viewBox="0 0 32 32">
<path fill="#3e75c3" style="fill: var(--color44, #3e75c3)" d="M16 32v0c8.837 0 16-7.163 16-16v0c0-8.837-7.163-16-16-16v0c-8.837 0-16 7.163-16 16v0c0 8.837 7.163 16 16 16z"></path>
<path fill="#fff" style="fill: var(--color37, #fff)" d="M15.999 5.333c-5.89 0-10.666 4.794-10.666 10.71 0 4.731 3.056 8.745 7.295 10.161 0.533 0.098 0.728-0.232 0.728-0.516 0-0.254-0.009-0.928-0.015-1.821-2.967 0.647-3.593-1.436-3.593-1.436-0.485-1.237-1.184-1.566-1.184-1.566-0.969-0.665 0.073-0.651 0.073-0.651 1.070 0.076 1.633 1.104 1.633 1.104 0.952 1.636 2.497 1.164 3.105 0.89 0.097-0.692 0.373-1.164 0.677-1.432-2.369-0.27-4.859-1.189-4.859-5.292 0-1.169 0.415-2.125 1.098-2.874-0.11-0.271-0.476-1.359 0.104-2.834 0 0 0.896-0.288 2.933 1.098 0.851-0.238 1.763-0.356 2.671-0.361 0.906 0.005 1.819 0.123 2.671 0.361 2.036-1.385 2.93-1.098 2.93-1.098 0.582 1.475 0.216 2.563 0.106 2.834 0.684 0.749 1.097 1.705 1.097 2.874 0 4.114-2.494 5.019-4.87 5.284 0.383 0.331 0.724 0.984 0.724 1.983 0 1.432-0.013 2.586-0.013 2.938 0 0.286 0.192 0.62 0.733 0.515 4.235-1.419 7.289-5.43 7.289-10.159 0-5.915-4.776-10.71-10.667-10.71z"></path>
</symbol>
<symbol id="redux" viewBox="0 0 32 32">
<path d="M22.177 22.005c1.159-0.1 2.057-1.12 1.999-2.339-0.061-1.219-1.060-2.197-2.277-2.197h-0.081c-1.257 0.041-2.237 1.099-2.197 2.359 0.040 0.639 0.301 1.159 0.659 1.537-1.397 2.717-3.495 4.715-6.672 6.393-2.137 1.117-4.395 1.539-6.592 1.239-1.837-0.259-3.275-1.080-4.155-2.397-1.317-1.999-1.437-4.155-0.34-6.312 0.801-1.559 1.999-2.697 2.799-3.257-0.2-0.519-0.44-1.397-0.56-2.056-5.915 4.236-5.313 10.028-3.516 12.765 1.339 1.997 4.076 3.275 7.072 3.275 0.799 0 1.639-0.059 2.457-0.259 5.195-0.999 9.129-4.115 11.387-8.709l0.019-0.041zM29.308 17.011c-3.095-3.636-7.651-5.633-12.845-5.633h-0.68c-0.337-0.739-1.116-1.199-1.996-1.199h-0.060c-1.257 0-2.237 1.080-2.196 2.337 0.040 1.197 1.059 2.197 2.277 2.197h0.099c0.9-0.040 1.679-0.6 1.997-1.399h0.74c3.079 0 5.993 0.899 8.651 2.656 2.036 1.339 3.496 3.096 4.315 5.195 0.717 1.717 0.679 3.396-0.060 4.796-1.139 2.196-3.057 3.356-5.593 3.356-1.599 0-3.156-0.5-3.956-0.859-0.479 0.397-1.279 1.057-1.859 1.457 1.757 0.797 3.536 1.257 5.253 1.257 3.896 0 6.791-2.196 7.891-4.315 1.197-2.397 1.099-6.432-1.959-9.888l-0.019 0.040zM8.653 22.723c0.039 1.199 1.057 2.197 2.277 2.197h0.080c1.279-0.040 2.257-1.097 2.197-2.357 0-1.199-1.039-2.196-2.257-2.196h-0.081c-0.080 0-0.199 0-0.3 0.039-1.657-2.797-2.357-5.795-2.096-9.028 0.159-2.437 0.959-4.556 2.396-6.313 1.199-1.499 3.456-2.239 4.995-2.277 4.315-0.081 6.113 5.295 6.252 7.432l1.997 0.599c-0.46-6.552-4.533-9.989-8.429-9.989-3.656 0-7.031 2.657-8.391 6.553-1.857 5.195-0.639 10.188 1.639 14.184-0.199 0.26-0.319 0.719-0.279 1.157z"></path>
</symbol>
<symbol id="react" viewBox="0 0 32 32">
<path fill="#61dafb" style="fill: var(--color45, #61dafb)" d="M18.325 11.875c0 1.284-1.041 2.325-2.325 2.325s-2.325-1.041-2.325-2.325c0-1.284 1.041-2.325 2.325-2.325s2.325 1.041 2.325 2.325z"></path>
<path fill="#61dafb" style="fill: var(--color45, #61dafb)" d="M16 20.425c1.825 1.775 3.625 2.825 5.075 2.825 0.475 0 0.925-0.1 1.3-0.325 1.3-0.75 1.775-2.625 1.325-5.3-0.075-0.475-0.175-0.95-0.3-1.45 0.5-0.15 0.95-0.3 1.4-0.45 2.525-0.975 3.925-2.325 3.925-3.8 0-1.5-1.4-2.85-3.925-3.8-0.45-0.175-0.9-0.325-1.4-0.45 0.125-0.5 0.225-0.975 0.3-1.45 0.425-2.725-0.050-4.625-1.35-5.375-0.375-0.225-0.825-0.325-1.3-0.325-1.425 0-3.25 1.050-5.075 2.825-1.8-1.775-3.6-2.825-5.050-2.825-0.475 0-0.925 0.1-1.3 0.325-1.3 0.75-1.775 2.625-1.325 5.3 0.075 0.475 0.175 0.95 0.3 1.45-0.5 0.15-0.95 0.3-1.4 0.45-2.525 0.975-3.925 2.325-3.925 3.8 0 1.5 1.4 2.85 3.925 3.8 0.45 0.175 0.9 0.325 1.4 0.45-0.125 0.5-0.225 0.975-0.3 1.45-0.425 2.675 0.050 4.575 1.325 5.3 0.375 0.225 0.825 0.325 1.3 0.325 1.45 0.050 3.25-1 5.075-2.75zM14.6 17.050c0.45 0.025 0.925 0.025 1.4 0.025s0.95 0 1.4-0.025c-0.45 0.6-0.925 1.15-1.4 1.675-0.475-0.525-0.95-1.075-1.4-1.675zM11.5 14.475c0.25 0.425 0.475 0.825 0.75 1.225-0.775-0.1-1.5-0.225-2.2-0.375 0.225-0.675 0.475-1.375 0.775-2.075 0.2 0.4 0.425 0.825 0.675 1.225zM10.050 8.45c0.7-0.15 1.425-0.275 2.2-0.375-0.25 0.4-0.5 0.8-0.75 1.225s-0.475 0.825-0.675 1.25c-0.325-0.725-0.575-1.425-0.775-2.1zM11.425 11.875c0.325-0.675 0.675-1.35 1.075-2.025 0.375-0.65 0.8-1.3 1.225-1.95 0.75-0.050 1.5-0.075 2.275-0.075 0.8 0 1.55 0.025 2.275 0.075 0.45 0.65 0.85 1.3 1.225 1.95 0.4 0.675 0.75 1.35 1.075 2.025-0.325 0.675-0.675 1.35-1.075 2.025-0.375 0.65-0.8 1.3-1.225 1.95-0.75 0.050-1.5 0.075-2.275 0.075-0.8 0-1.55-0.025-2.275-0.075-0.45-0.65-0.85-1.3-1.225-1.95-0.4-0.675-0.75-1.35-1.075-2.025zM21.2 10.525l-0.675-1.25c-0.25-0.425-0.475-0.825-0.75-1.225 0.775 0.1 1.5 0.225 2.2 0.375-0.225 0.7-0.475 1.4-0.775 2.1zM21.2 13.225c0.3 0.7 0.55 1.4 0.775 2.075-0.7 0.15-1.425 0.275-2.2 0.375 0.25-0.4 0.5-0.8 0.75-1.225 0.225-0.375 0.45-0.8 0.675-1.225zM21.775 21.9c-0.2 0.125-0.45 0.175-0.725 0.175-1.225 0-2.75-1-4.25-2.5 0.725-0.775 1.425-1.65 2.125-2.625 1.175-0.1 2.3-0.275 3.35-0.525 0.125 0.45 0.2 0.9 0.275 1.35 0.35 2.125 0.075 3.65-0.775 4.125zM23.075 8.725c2.8 0.8 4.475 2.025 4.475 3.15 0 0.975-1.15 1.95-3.175 2.725-0.4 0.15-0.85 0.3-1.3 0.425-0.325-1.025-0.725-2.075-1.225-3.15 0.5-1.075 0.925-2.125 1.225-3.15zM21.075 1.675c0.275 0 0.5 0.050 0.725 0.175 0.825 0.475 1.125 1.975 0.775 4.125-0.075 0.425-0.175 0.875-0.275 1.35-1.050-0.225-2.175-0.4-3.35-0.525-0.675-0.975-1.4-1.85-2.125-2.625 1.5-1.475 3.025-2.5 4.25-2.5zM17.4 6.7c-0.45-0.025-0.925-0.025-1.4-0.025s-0.95 0-1.4 0.025c0.45-0.6 0.925-1.15 1.4-1.675 0.475 0.525 0.95 1.1 1.4 1.675zM10.225 1.85c0.2-0.125 0.45-0.175 0.725-0.175 1.225 0 2.75 1 4.25 2.5-0.725 0.775-1.425 1.65-2.125 2.625-1.175 0.1-2.3 0.275-3.35 0.525-0.125-0.45-0.2-0.9-0.275-1.35-0.35-2.125-0.075-3.625 0.775-4.125zM8.925 15.025c-2.8-0.8-4.475-2.025-4.475-3.15 0-0.975 1.15-1.95 3.175-2.725 0.4-0.15 0.85-0.3 1.3-0.425 0.325 1.025 0.725 2.075 1.225 3.15-0.5 1.075-0.925 2.15-1.225 3.15zM9.45 17.775c0.075-0.425 0.175-0.875 0.275-1.35 1.050 0.225 2.175 0.4 3.35 0.525 0.675 0.975 1.4 1.85 2.125 2.625-1.5 1.475-3.025 2.5-4.25 2.5-0.275 0-0.5-0.050-0.725-0.175-0.85-0.475-1.125-2-0.775-4.125zM8.4 28.075c0.55-0.675 0.575-1.425 0.275-2.175s-0.925-1.1-1.7-1.125c-0.925-0.025-1.875 0-2.8 0h-0.175v6.475h0.75v-2.45h1.175c0.15 0 0.275 0.050 0.35 0.175l1.5 2.325c0.025 0.050 0.1 0.125 0.15 0.125h0.975c-0.6-0.925-1.175-1.8-1.775-2.7 0.525-0.075 0.975-0.25 1.275-0.65zM4.75 28.025v-2.475h0.275c0.575 0 1.175-0.025 1.75 0.025 0.675 0.025 1.15 0.55 1.15 1.225s-0.55 1.2-1.225 1.225c-0.6 0.025-1.2 0-1.95 0zM14.425 28.35c-0.4-1.75-2-2.2-3.225-1.65-0.95 0.425-1.375 1.25-1.4 2.275-0.025 0.775 0.2 1.475 0.8 2 0.675 0.6 1.5 0.675 2.35 0.525 0.475-0.1 0.9-0.325 1.225-0.675-0.125-0.175-0.25-0.35-0.375-0.5-0.7 0.6-1.475 0.8-2.325 0.4-0.55-0.275-0.825-0.95-0.875-1.45h3.875v-0.325c0.025-0.225 0-0.425-0.050-0.6zM10.65 28.75c-0.075-0.75 0.675-1.55 1.5-1.55 0.95-0.025 1.55 0.55 1.575 1.55h-3.075zM18.325 26.575c-0.375-0.075-0.775-0.1-1.15-0.075-0.6 0.050-1.125 0.325-1.55 0.775 0.125 0.175 0.225 0.35 0.375 0.55 0.050-0.050 0.1-0.1 0.15-0.125 0.4-0.375 0.875-0.575 1.45-0.525 0.45 0.025 0.875 0.175 1 0.625 0.1 0.35 0.075 0.725 0.1 1.1-0.075 0-0.1-0.025-0.125-0.050-0.6-0.5-1.275-0.6-2-0.425-0.675 0.175-1.1 0.7-1.15 1.375-0.050 0.775 0.3 1.35 0.975 1.625 0.425 0.175 0.9 0.175 1.35 0.075 0.35-0.075 0.5-0.275 1-0.55v0.325h0.7c0-1 0.025-2.225 0-3.375 0-0.725-0.425-1.175-1.125-1.325zM18.675 29.725c-0.025 0.075 0 0.15 0 0.225 0 0.525-0.125 0.7-0.625 0.9-0.35 0.125-0.725 0.175-1.1 0.050-0.425-0.125-0.725-0.5-0.725-0.925-0.025-0.425 0.25-0.85 0.675-0.975 0.575-0.2 1.1-0.075 1.575 0.275 0.15 0.125 0.25 0.25 0.2 0.45zM22.575 27.25c0.65-0.2 1.25-0.075 1.7 0.475l0.075 0.050c0.175-0.15 0.325-0.3 0.525-0.475-0.075-0.075-0.1-0.125-0.15-0.2-0.725-0.775-2.15-0.875-3.025-0.25-1.225 0.9-1.2 2.65-0.6 3.575 0.575 0.875 1.4 1.175 2.375 1.050 0.575-0.075 1.050-0.35 1.425-0.825-0.175-0.15-0.35-0.3-0.525-0.475-0.050 0.050-0.075 0.075-0.1 0.125-0.675 0.75-1.8 0.675-2.4-0.125-0.35-0.475-0.425-1.025-0.325-1.575 0.050-0.625 0.375-1.125 1.025-1.35zM27.775 30.65c-0.050 0.025-0.075 0.050-0.075 0.050-0.2 0.15-0.4 0.175-0.625 0.1-0.225-0.1-0.25-0.3-0.275-0.5v-2.85c0-0.050 0 0.050 0.025-0.2h0.95v-0.75h-1v-1.25h-0.75v1.35h-0.65c-0.050 0-0.125 0.050-0.125 0.1-0.025 0.175 0 0.3 0 0.55h0.8v3.2c0 0.4 0.1 0.75 0.45 0.95 0.375 0.225 1.1 0.175 1.425-0.1 0.050-0.025 0.075-0.125 0.075-0.15-0.075-0.15-0.15-0.325-0.225-0.5z"></path>
</symbol>
<symbol id="js" viewBox="0 0 32 32">
<path fill="#f0db4f" style="fill: var(--color46, #f0db4f)" d="M1.625 1.625h28.75v28.75h-28.75v-28.75z"></path>
<path fill="#323330" style="fill: var(--color47, #323330)" d="M17.271 24.047c0 2.798-1.643 4.075-4.037 4.075-2.163 0-3.414-1.117-4.056-2.471l2.201-1.328c0.424 0.751 0.809 1.386 1.739 1.386 0.886 0 1.45-0.346 1.45-1.701v-9.183h2.702v9.222z"></path>
<path fill="#323330" style="fill: var(--color47, #323330)" d="M23.662 28.122c-2.509 0-4.133-1.194-4.922-2.759l2.201-1.271c0.578 0.943 1.335 1.643 2.663 1.643 1.117 0 1.835-0.558 1.835-1.335 0-0.924-0.732-1.251-1.97-1.797l-0.674-0.289c-1.951-0.828-3.241-1.874-3.241-4.075 0-2.028 1.547-3.568 3.953-3.568 1.72 0 2.952 0.597 3.838 2.163l-2.105 1.348c-0.462-0.828-0.963-1.155-1.739-1.155-0.789 0-1.29 0.501-1.29 1.155 0 0.809 0.501 1.136 1.662 1.643l0.674 0.289c2.297 0.982 3.587 1.989 3.587 4.248 0 2.426-1.912 3.76-4.473 3.76v0z"></path>
</symbol>
<symbol id="css3" viewBox="0 0 32 32">
<path fill="#1758a7" style="fill: var(--color48, #1758a7)" d="M5.738 7.317l1.924 20.844 8.338 2.245 8.338-2.245 1.924-20.844z"></path>
<path fill="#379ad6" style="fill: var(--color49, #379ad6)" d="M16 9.005v19.61l0.019 0.005 6.747-1.817 1.557-17.799z"></path>
<path fill="#e8e8e7" style="fill: var(--color50, #e8e8e7)" d="M15.976 23.284l-0.005 0.001-2.786-0.71-0.169-2.045h-2.589l0.338 3.948 5.234 1.562v-2.763z"></path>
<path fill="#fbfbfa" style="fill: var(--color51, #fbfbfa)" d="M16 16.674v2.508h0.007l3.094 0.003-0.199 3.278-2.903 0.818v2.755l0.009 0.003 5.248-1.533 0.681-7.833z"></path>
<path fill="#e5e4e2" style="fill: var(--color52, #e5e4e2)" d="M10.063 16.674l0.197 2.509 5.74 0v-2.51z"></path>
<path fill="#eee" style="fill: var(--color53, #eee)" d="M10.063 16.674h5.923l0.015-0.006v-2.504z"></path>
<path fill="#fff" style="fill: var(--color37, #fff)" d="M16.347 14.042l-0.347 0.145v2.486l6.122-2.632z"></path>
<path fill="#e7e7e6" style="fill: var(--color54, #e7e7e6)" d="M9.512 11.532l0.31 2.509h6.178v-2.509z"></path>
<path fill="#f8f8f7" style="fill: var(--color55, #f8f8f7)" d="M16 14.042l6.365-2.51h-6.365v2.509zM16.002 14.042h6.11l0.253-2.51-6.363 2.509z"></path>
<path fill="#1b1b1b" style="fill: var(--color56, #1b1b1b)" d="M9.91 5.493h3.168v-1.239h-1.81v-1.241h1.81v-1.358h-3.168v3.837zM14.432 3.014c0.424 0.424 0.645 0.627 1.258 1.24-0.358 0-1.258 0.001-1.258 0.001v1.239h3.168v-1.239l-1.265-1.241h1.265v-1.358h-3.168c0 0 0 0.681 0 1.358zM22.090 1.656h-3.168c0 0 0 0.681 0 1.358 0.424 0.424 0.645 0.627 1.258 1.24-0.358 0-1.258 0.001-1.258 0.001v1.239h3.168v-1.239l-1.265-1.241h1.265v-1.358z"></path>
</symbol>
<symbol id="html5" viewBox="0 0 32 32">
<path fill="#e44d26" style="fill: var(--color57, #e44d26)" d="M5.816 7.307l1.853 20.79 8.318 2.309 8.341-2.312 1.856-20.786z"></path>
<path fill="#ebebeb" style="fill: var(--color58, #ebebeb)" d="M16 11.556h-6.394l0.061 0.684 0.627 7.026h5.706v-2.55h-3.374l-0.233-2.611h3.607v-2.55zM13.149 22.575l-0.182-2.034h-2.56l0.357 4.003 5.223 1.45 0.012-0.003v-2.653l-0.011 0.003-2.84-0.767z"></path>
<path fill="#f16529" style="fill: var(--color59, #f16529)" d="M16 9.007v19.631l6.739-1.868 1.586-17.763z"></path>
<path fill="#fff" style="fill: var(--color37, #fff)" d="M15.991 19.267h3.14l-0.296 3.307-2.844 0.768v2.653l5.227-1.449 0.038-0.431 0.599-6.713 0.062-0.685h-5.927v2.55zM15.991 11.556v2.55h6.159l0.051-0.573 0.116-1.293 0.061-0.684h-6.387z"></path>
<path fill="#000" style="fill: var(--color43, #000)" d="M10.192 2.937h-1.185v-1.28h-1.296v3.877h1.296v-1.298h1.185v1.298h1.296v-3.877h-1.296v1.28zM12.052 2.943h1.141v2.591h1.296v-2.591h1.141v-1.286h-3.578v1.286zM18.379 3.019l-0.831-1.362h-1.351v3.877h1.268v-1.922l0.892 1.378h0.022l0.891-1.378v1.922h1.29v-3.877h-1.352l-0.83 1.362zM22.502 4.252v-2.595h-1.296v3.877h3.118v-1.281h-1.822z"></path>
</symbol>
<symbol id="vscode" viewBox="0 0 32 32">
<path fill="#0065a9" style="fill: var(--color1, #0065a9)" d="M29.010 5.030l-5.766-2.776c-0.221-0.109-0.481-0.173-0.757-0.173-0.481 0-0.917 0.195-1.232 0.511l-0 0-18.875 17.208c-0.235 0.214-0.382 0.522-0.382 0.863 0 0.302 0.115 0.577 0.303 0.784l-0.001-0.001c0.025 0.027 0.050 0.053 0.077 0.077l1.541 1.4c0.206 0.188 0.482 0.303 0.784 0.303 0.266 0 0.511-0.089 0.708-0.239l-0.003 0.002 22.735-17.24c0.192-0.147 0.436-0.236 0.7-0.236 0.639 0 1.158 0.518 1.158 1.157v0-0.067c-0-0.69-0.399-1.286-0.98-1.57l-0.010-0.005z"></path>
<path fill="#007acc" style="fill: var(--color2, #007acc)" d="M29.010 26.97l-5.766 2.777c-0.221 0.109-0.481 0.172-0.756 0.172-0.481 0-0.917-0.195-1.233-0.51l0 0-18.875-17.209c-0.235-0.214-0.382-0.522-0.382-0.864 0-0.302 0.115-0.577 0.303-0.784l-0.001 0.001c0.025-0.027 0.050-0.053 0.077-0.077l1.541-1.4c0.206-0.189 0.482-0.305 0.786-0.305 0.267 0 0.513 0.090 0.709 0.241l-0.003-0.002 22.732 17.24c0.192 0.147 0.436 0.236 0.7 0.236 0.639 0 1.158-0.518 1.158-1.157v-0 0.072c-0.002 0.688-0.401 1.282-0.98 1.565l-0.010 0.005z"></path>
<path fill="#1f9cf0" style="fill: var(--color3, #1f9cf0)" d="M23.244 29.747c-0.221 0.109-0.481 0.172-0.756 0.172-0.481 0-0.917-0.195-1.233-0.51l0 0c0.185 0.183 0.439 0.295 0.72 0.295 0.564 0 1.022-0.456 1.025-1.020v-25.368c0-0 0-0.001 0-0.001 0-0.566-0.458-1.024-1.024-1.024-0.283 0-0.54 0.115-0.725 0.301l-0 0c0.316-0.316 0.752-0.511 1.234-0.511 0.275 0 0.535 0.064 0.766 0.177l-0.010-0.005 5.765 2.772c0.593 0.288 0.994 0.884 0.995 1.575v18.8c0 0 0 0 0 0 0 0.69-0.4 1.287-0.981 1.571l-0.010 0.005z"></path>
</symbol>
</defs>
</svg>
